RBDS018runT25_grf
version=1
nRows=34
nColumns=19
inDegrees=no
endheader
time	ground_force_r_vx	ground_force_r_vy	ground_force_r_vz	ground_force_r_px	ground_force_r_py	ground_force_r_pz	ground_force_r_mx	ground_force_r_my	ground_force_r_mz	ground_force_l_vx	ground_force_l_vy	ground_force_l_vz	ground_force_l_px	ground_force_l_py	ground_force_l_pz	ground_force_l_mx	ground_force_l_my	ground_force_l_mz
     14.99900000	    -45.32685847	   1576.93836553	    -91.14235000	      2.08199660	      0.00000000	      1.09488333	     -0.00000000	     -1.11284639	     -0.00000000	      0.00000000	      0.00000000	      0.00000000	      0.00000000	      0.00000000	      0.00000000	      0.00000000	      0.00000000	      0.00000000
     15.00000000	    -42.00881027	   1570.35627651	    -91.35581559	      2.08009756	      0.00000000	      1.09495777	     -0.00000000	     -1.16536100	     -0.00000000	      0.00000000	      0.00000000	      0.00000000	      0.00000000	      0.00000000	      0.00000000	      0.00000000	      0.00000000	      0.00000000
     15.00100000	    -38.64916391	   1563.05414177	    -91.29636642	      2.07819763	      0.00000000	      1.09500281	     -0.00000000	     -1.21119989	     -0.00000000	      0.00000000	      0.00000000	      0.00000000	      0.00000000	      0.00000000	      0.00000000	      0.00000000	      0.00000000	      0.00000000
     15.00200000	    -35.28951756	   1555.75200704	    -91.23691724	      2.07629769	      0.00000000	      1.09504786	     -0.00000000	     -1.25703878	     -0.00000000	      0.00000000	      0.00000000	      0.00000000	      0.00000000	      0.00000000	      0.00000000	      0.00000000	      0.00000000	      0.00000000
     15.00300000	    -31.92987120	   1548.44987230	    -91.17746807	      2.07439775	      0.00000000	      1.09509290	     -0.00000000	     -1.30287766	     -0.00000000	      0.00000000	      0.00000000	      0.00000000	      0.00000000	      0.00000000	      0.00000000	      0.00000000	      0.00000000	      0.00000000
     15.00400000	    -28.54839675	   1540.68129275	    -90.93997312	      2.07249470	      0.00000000	      1.09511810	     -0.00000000	     -1.34443776	     -0.00000000	      0.00000000	      0.00000000	      0.00000000	      0.00000000	      0.00000000	      0.00000000	      0.00000000	      0.00000000	      0.00000000
     15.00500000	    -25.15600825	   1532.67949079	    -90.61345529	      2.07059008	      0.00000000	      1.09513338	     -0.00000000	     -1.38385846	     -0.00000000	      0.00000000	      0.00000000	      0.00000000	      0.00000000	      0.00000000	      0.00000000	      0.00000000	      0.00000000	      0.00000000
     15.00600000	    -21.76361976	   1524.67768883	    -90.28693745	      2.06868546	      0.00000000	      1.09514865	     -0.00000000	     -1.42327916	     -0.00000000	      0.00000000	      0.00000000	      0.00000000	      0.00000000	      0.00000000	      0.00000000	      0.00000000	      0.00000000	      0.00000000
     15.00700000	    -18.36334150	   1516.45106772	    -89.87493165	      2.06677791	      0.00000000	      1.09515407	     -0.00000000	     -1.46067068	     -0.00000000	      0.00000000	      0.00000000	      0.00000000	      0.00000000	      0.00000000	      0.00000000	      0.00000000	      0.00000000	      0.00000000
     15.00800000	    -14.94728370	   1507.77480828	    -89.29194995	      2.06486450	      0.00000000	      1.09513976	     -0.00000000	     -1.49400385	     -0.00000000	      0.00000000	      0.00000000	      0.00000000	      0.00000000	      0.00000000	      0.00000000	      0.00000000	      0.00000000	      0.00000000
     15.00900000	    -11.53122590	   1499.09854885	    -88.70896825	      2.06295109	      0.00000000	      1.09512545	     -0.00000000	     -1.52733702	     -0.00000000	      0.00000000	      0.00000000	      0.00000000	      0.00000000	      0.00000000	      0.00000000	      0.00000000	      0.00000000	      0.00000000
     15.01000000	     -8.11516811	   1490.42228942	    -88.12598654	      2.06103768	      0.00000000	      1.09511114	      0.00000000	     -1.56067019	     -0.00000000	      0.00000000	      0.00000000	      0.00000000	      0.00000000	      0.00000000	      0.00000000	      0.00000000	      0.00000000	      0.00000000
     15.01100000	     -4.68527672	   1481.10148937	    -87.30142359	      2.05911121	      0.00000000	      1.09506794	      0.00000000	     -1.58827122	     -0.00000000	      0.00000000	      0.00000000	      0.00000000	      0.00000000	      0.00000000	      0.00000000	      0.00000000	      0.00000000	      0.00000000
     15.01200000	     -1.25538532	   1471.78068931	    -86.47686064	      2.05718474	      0.00000000	      1.09502474	      0.00000000	     -1.61587224	     -0.00000000	      0.00000000	      0.00000000	      0.00000000	      0.00000000	      0.00000000	      0.00000000	      0.00000000	      0.00000000	      0.00000000
     15.01300000	      2.17450607	   1462.45988926	    -85.65229769	      2.05525826	      0.00000000	      1.09498154	      0.00000000	     -1.64347327	     -0.00000000	      0.00000000	      0.00000000	      0.00000000	      0.00000000	      0.00000000	      0.00000000	      0.00000000	      0.00000000	      0.00000000
     15.01400000	      5.60621656	   1452.73227690	    -84.67910666	      2.05332026	      0.00000000	      1.09491986	      0.00000000	     -1.66748092	     -0.00000000	      0.00000000	      0.00000000	      0.00000000	      0.00000000	      0.00000000	      0.00000000	      0.00000000	      0.00000000	      0.00000000
     15.01500000	      9.03883660	   1442.80125839	    -83.63160160	      2.05137649	      0.00000000	      1.09484894	      0.00000000	     -1.68969189	     -0.00000000	      0.00000000	      0.00000000	      0.00000000	      0.00000000	      0.00000000	      0.00000000	      0.00000000	      0.00000000	      0.00000000
     15.01600000	     12.47145664	   1432.87023987	    -82.58409653	      2.04943272	      0.00000000	      1.09477801	      0.00000000	     -1.71190286	     -0.00000000	      0.00000000	      0.00000000	      0.00000000	      0.00000000	      0.00000000	      0.00000000	      0.00000000	      0.00000000	      0.00000000
     15.01700000	     15.90071755	   1422.74857538	    -81.46955835	      2.04748187	      0.00000000	      1.09469837	      0.00000000	     -1.73241781	     -0.00000000	      0.00000000	      0.00000000	      0.00000000	      0.00000000	      0.00000000	      0.00000000	      0.00000000	      0.00000000	      0.00000000
     15.01800000	     19.32326022	   1412.24561895	    -80.22095395	      2.04551684	      0.00000000	      1.09460130	      0.00000000	     -1.74954072	     -0.00000000	      0.00000000	      0.00000000	      0.00000000	      0.00000000	      0.00000000	      0.00000000	      0.00000000	      0.00000000	      0.00000000
     15.01900000	     22.74580289	   1401.74266252	    -78.97234955	      2.04355182	      0.00000000	      1.09450422	      0.00000000	     -1.76666363	     -0.00000000	      0.00000000	      0.00000000	      0.00000000	      0.00000000	      0.00000000	      0.00000000	      0.00000000	      0.00000000	      0.00000000
     15.02000000	     26.16834556	   1391.23970609	    -77.72374515	      2.04158679	      0.00000000	      1.09440715	      0.00000000	     -1.78378654	     -0.00000000	      0.00000000	      0.00000000	      0.00000000	      0.00000000	      0.00000000	      0.00000000	      0.00000000	      0.00000000	      0.00000000
     15.02100000	     29.56597728	   1380.20649580	    -76.29851076	      2.03959704	      0.00000000	      1.09428587	      0.00000000	     -1.79606767	     -0.00000000	      0.00000000	      0.00000000	      0.00000000	      0.00000000	      0.00000000	      0.00000000	      0.00000000	      0.00000000	      0.00000000
     15.02200000	     32.96360900	   1369.17328552	    -74.87327637	      2.03760730	      0.00000000	      1.09416459	      0.00000000	     -1.80834880	     -0.00000000	      0.00000000	      0.00000000	      0.00000000	      0.00000000	      0.00000000	      0.00000000	      0.00000000	      0.00000000	      0.00000000
     15.02300000	     36.36124072	   1358.14007524	    -73.44804198	      2.03561755	      0.00000000	      1.09404330	      0.00000000	     -1.82062993	     -0.00000000	      0.00000000	      0.00000000	      0.00000000	      0.00000000	      0.00000000	      0.00000000	      0.00000000	      0.00000000	      0.00000000
     15.02400000	     39.73089400	   1346.78300522	    -71.92272218	      2.03360951	      0.00000000	      1.09390738	      0.00000000	     -1.82980686	     -0.00000000	      0.00000000	      0.00000000	      0.00000000	      0.00000000	      0.00000000	      0.00000000	      0.00000000	      0.00000000	      0.00000000
     15.02500000	     43.08655807	   1335.26400533	    -70.34735968	      2.03159233	      0.00000000	      1.09376413	      0.00000000	     -1.83743169	     -0.00000000	      0.00000000	      0.00000000	      0.00000000	      0.00000000	      0.00000000	      0.00000000	      0.00000000	      0.00000000	      0.00000000
     15.02600000	     46.44222214	   1323.74500544	    -68.77199718	      2.02957514	      0.00000000	      1.09362089	      0.00000000	     -1.84505652	     -0.00000000	      0.00000000	      0.00000000	      0.00000000	      0.00000000	      0.00000000	      0.00000000	      0.00000000	      0.00000000	      0.00000000
     15.02700000	     49.77745506	   1312.07960625	    -67.15590271	      2.02754823	      0.00000000	      1.09347115	      0.00000000	     -1.85117227	     -0.00000000	      0.00000000	      0.00000000	      0.00000000	      0.00000000	      0.00000000	      0.00000000	      0.00000000	      0.00000000	      0.00000000
     15.02800000	     53.07182568	   1300.12140846	    -65.45834433	      2.02550186	      0.00000000	      1.09330844	      0.00000000	     -1.85426986	     -0.00000000	      0.00000000	      0.00000000	      0.00000000	      0.00000000	      0.00000000	      0.00000000	      0.00000000	      0.00000000	      0.00000000
     15.02900000	     56.36619630	   1288.16321067	    -63.76078594	      2.02345550	      0.00000000	      1.09314572	      0.00000000	     -1.85736745	     -0.00000000	      0.00000000	      0.00000000	      0.00000000	      0.00000000	      0.00000000	      0.00000000	      0.00000000	      0.00000000	      0.00000000
     15.03000000	     59.66056692	   1276.20501287	    -62.06322756	      2.02140913	      0.00000000	      1.09298301	      0.00000000	     -1.86046504	     -0.00000000	      0.00000000	      0.00000000	      0.00000000	      0.00000000	      0.00000000	      0.00000000	      0.00000000	      0.00000000	      0.00000000
     15.03100000	     62.87216268	   1263.85568946	    -60.27223626	      2.01933301	      0.00000000	      1.09280350	      0.00000000	     -1.85912058	     -0.00000000	      0.00000000	      0.00000000	      0.00000000	      0.00000000	      0.00000000	      0.00000000	      0.00000000	      0.00000000	      0.00000000
     15.03200000	     66.08375844	   1251.50636604	    -58.48124496	      2.01725689	      0.00000000	      1.09262400	      0.00000000	     -1.85777611	      0.00000000	      0.00000000	      0.00000000	      0.00000000	      0.00000000	      0.00000000	      0.00000000	      0.00000000	      0.00000000	      0.00000000
